# xmcd
#
# Track frame offsets:
#	150
#	12205
#	17950
#	33771
#	59038
#	83211
#	106287
#	128695
#
# Disc length: 2418 seconds
#
# Revision: 1
# Processed by: cddbd v1.5.1PL0 Copyright (c) Steve Scherf et al.
# Submitted via: audiograbber 1.80
#
DISCID=5e097008
DTITLE=Santana - Johnny and Edgar  Winter -Taj Mahal - Live In Concert At The Roy
DTITLE=al Albert Hall
DYEAR=1900
DGENRE=
TTITLE0=Riverside
TTITLE1=Sweet Mama Genise
TTITLE2=Oh Susannah
TTITLE3=Johnny B. Goode
TTITLE4=Tell The Truth
TTITLE5=Soapstone Mountain
TTITLE6=White Bird
TTITLE7=Medley and Soul Sacrifice
EXTD=
EXTT0=
EXTT1=
EXTT2=
EXTT3=
EXTT4=
EXTT5=
EXTT6=
EXTT7=
PLAYORDER=
